<svg width="430" height="932" viewBox="0 0 430 932" fill="none" xmlns="http://www.w3.org/2000/svg">
<g clip-path="url(#clip0_72_83)">
<rect width="430" height="43" transform="translate(430.2 391) rotate(179.726)" fill="white"/>
<path d="M430.1 370.831L430.094 375.131L416.208 375.111L416.196 383.711L402.341 383.691L402.335 387.991L388.449 387.972L388.461 379.372L374.606 379.352L374.624 366.452L360.739 366.432L360.727 375.032L346.871 375.013L346.865 379.313L332.98 379.293L332.998 366.393L319.142 366.374L319.161 353.474L305.275 353.454L305.269 357.754L291.414 357.734L291.377 383.534L277.492 383.514L277.528 357.715L263.673 357.695L263.654 370.595L249.769 370.575L249.787 357.675L235.932 357.656L235.913 370.556L222.028 370.536L222.004 387.736L208.148 387.716L208.142 392.016L194.257 391.997L194.281 374.797L180.425 374.777L180.438 366.177L166.552 366.157L166.564 357.557L152.709 357.538L152.721 348.938L138.836 348.918L138.787 383.318L124.931 383.298L124.974 353.198L111.089 353.179L111.076 361.779L97.2209 361.759L97.1843 387.559L83.2989 387.539L69.4433 387.52L69.4799 361.72L55.5945 361.7L55.5762 374.6L41.7207 374.58L41.7451 357.38L27.8597 357.361L27.8231 383.161L13.9676 383.141L13.9615 387.441L0.0760491 387.421L0.130898 348.721L14.0163 348.741L27.8719 348.761L41.7573 348.78L55.6128 348.8L69.4982 348.82L83.3537 348.839L97.2391 348.859L111.095 348.879L124.98 348.898L138.836 348.918L152.721 348.938L166.577 348.957L180.462 348.977L194.318 348.997L208.203 349.016L222.058 349.036L235.944 349.056L249.799 349.075L263.685 349.095L277.54 349.115L291.426 349.134L305.281 349.154L319.167 349.174L333.022 349.193L346.908 349.213L360.763 349.232L374.649 349.252L388.504 349.272L402.39 349.291L416.245 349.311L430.13 349.331L430.1 370.831Z" fill="black"/>
</g>
<rect width="430" height="350" fill="black"/>
<path d="M430.115 557.844V572.219H416.229V596.178H402.374V586.594H388.488V557.844H374.633V581.803H360.747V567.428H346.892V553.053H333.006V591.386H319.151V596.178H305.265V562.636H291.41V577.011H277.524V572.219H263.669V596.178H249.783V591.386H235.928V600.969H222.043V567.428H208.187V596.178H194.302V581.803H180.446V586.594L166.561 586.594V596.178H152.705V567.428L138.82 567.428V577.011H124.964V562.636H111.079V596.178H97.223V581.803H83.3376V600.969H69.4821V596.178H55.5967V586.594H41.7411V567.428H27.8557V553.053H14.0001V600.969H27.8557H41.7411H55.5967H69.4821H83.3376H97.223H111.079H124.964H138.82H152.705H166.561L180.446 600.969H194.302H208.187H222.043H235.928H249.783H263.669H277.524H291.41H305.265H319.151H333.006H346.892H360.747H374.633H388.488H402.374H416.229H430.115V557.844Z" fill="#BEB8AC"/>
<rect y="601" width="430" height="331" fill="#BEB8AC"/>
<defs>
<clipPath id="clip0_72_83">
<rect width="430" height="43" fill="white" transform="translate(430.2 391) rotate(179.726)"/>
</clipPath>
</defs>
</svg>
